<svg width="30" height="30" viewBox="0 0 30 30" fill="none" xmlns="http://www.w3.org/2000/svg">
<circle cx="15" cy="15" r="11.25" stroke="#9288E0" stroke-width="1.8"/>
<path d="M13.0737 12.4262C13.0737 11.6835 13.6449 11.2184 14.4202 11.1286V13.7482C14.3386 13.7319 14.2651 13.7074 14.1917 13.6829C13.449 13.4381 13.0737 13.0137 13.0737 12.4262ZM17.154 17.5185C17.154 18.3182 16.542 18.8487 15.6769 18.9221V16.1067C15.7341 16.123 15.7912 16.1393 15.8402 16.1475C16.7542 16.4005 17.154 16.8493 17.154 17.5185ZM15.6933 21.7213L15.6851 20.6849C17.9212 20.4727 19.3411 19.2404 19.3411 17.2981C19.3411 15.3232 18.0109 14.4908 16.3706 14.1399L15.6769 13.993V11.1449C16.542 11.2837 17.0235 11.9365 17.048 12.5894H19.1371C19.1045 10.8919 17.7743 9.60253 15.7096 9.38219V8.32129H14.3875V9.37403C12.4126 9.55357 10.8621 10.639 10.8621 12.5975C10.8621 14.45 12.2005 15.3967 13.7184 15.7313L14.4202 15.8863V18.9221C13.3756 18.7834 12.8288 18.155 12.788 17.4042H10.6499C10.6662 18.914 11.6782 20.5053 14.3794 20.7012L14.3712 21.7213H15.6933Z" fill="#9288E0"/>
</svg>
