<svg width="20" height="20" viewBox="0 0 20 20" fill="none" xmlns="http://www.w3.org/2000/svg">
<path d="M7.59149 12.4565L7.91127 12.4579C12.5557 12.4983 15.1835 13.4363 15.1835 15.9985C15.1835 18.5064 12.665 19.4738 8.22363 19.5549L7.59149 19.5605C2.74715 19.5605 0.000488281 18.6396 0.000488281 16.0185C0.000488281 13.3939 2.75808 12.4565 7.59149 12.4565ZM7.59149 13.9565C3.57414 13.9565 1.50049 14.6614 1.50049 16.0185C1.50049 17.3669 3.56916 18.0605 7.59149 18.0605C11.6091 18.0605 13.6835 17.3555 13.6835 15.9985C13.6835 14.6508 11.6129 13.9565 7.59149 13.9565ZM15.5872 11.7483C16.1677 11.7878 16.7449 11.871 17.2996 11.994C18.4877 12.2303 19.371 12.6715 19.7757 13.5206C20.0745 14.1494 20.0745 14.8808 19.7757 15.5095C19.3733 16.3565 18.4992 16.7945 17.3044 17.0402C16.8987 17.1237 16.5021 16.8624 16.4187 16.4567C16.3352 16.051 16.5965 15.6544 17.0022 15.571C17.771 15.4128 18.2827 15.1564 18.4209 14.8656C18.5261 14.6444 18.5261 14.3858 18.4213 14.1653C18.2822 13.8734 17.7678 13.6165 16.9912 13.4619C16.4938 13.3518 15.991 13.2793 15.4854 13.2449C15.0721 13.2168 14.7599 12.859 14.788 12.4457C14.8161 12.0324 15.1739 11.7202 15.5872 11.7483ZM7.59149 0.5C10.4395 0.5 12.7265 2.78661 12.7265 5.634C12.7265 8.48221 10.4397 10.769 7.59149 10.769C4.74341 10.769 2.45749 8.48235 2.45749 5.634C2.45749 2.78647 4.74359 0.5 7.59149 0.5ZM14.0202 1.5696C16.2551 1.5696 18.0672 3.38208 18.0672 5.6166C18.0672 7.85181 16.2554 9.6636 14.0202 9.6636C13.606 9.6636 13.2702 9.32781 13.2702 8.9136C13.2702 8.49939 13.606 8.1636 14.0202 8.1636C15.427 8.1636 16.5672 7.02339 16.5672 5.6166C16.5672 4.21043 15.4266 3.0696 14.0202 3.0696C13.606 3.0696 13.2702 2.73381 13.2702 2.3196C13.2702 1.90539 13.606 1.5696 14.0202 1.5696ZM7.59149 2C5.57207 2 3.95749 3.61484 3.95749 5.634C3.95749 7.65403 5.57195 9.269 7.59149 9.269C9.61127 9.269 11.2265 7.65379 11.2265 5.634C11.2265 3.61509 9.61115 2 7.59149 2Z" fill="#65B0F6"/>
</svg>
